HIERARCHY
ROOT Hips
{
	OFFSET 0.00 0.00 0.00
	CHANNELS 6 Xposition Yposition Zposition Xrotation Yrotation Zrotation
	JOINT RightUpLeg
	{
		OFFSET -4.47808 0.00000 0.00000
		CHANNELS 3 Xrotation Yrotation Zrotation
		JOINT RightLeg
		{
			OFFSET 0.00000 -16.40577 0.00000
			CHANNELS 3 Xrotation Yrotation Zrotation
			JOINT RightFoot
			{
				OFFSET 0.00000 -14.64414 0.00000
				CHANNELS 3 Xrotation Yrotation Zrotation
				JOINT RightToeBase
				{
					OFFSET 0.00000 -1.50274 5.60831
					CHANNELS 3 Xrotation Yrotation Zrotation
					End Site
					{
						OFFSET 0.00000 0.00000 2.95275
					}
				}
			}
		}
	}
	JOINT LeftUpLeg
	{
		OFFSET 4.47808 0.00000 0.00000
		CHANNELS 3 Xrotation Yrotation Zrotation
		JOINT LeftLeg
		{
			OFFSET 0.00000 -16.40577 0.00000
			CHANNELS 3 Xrotation Yrotation Zrotation
			JOINT LeftFoot
			{
				OFFSET 0.00000 -14.64414 0.00000
				CHANNELS 3 Xrotation Yrotation Zrotation
				JOINT LeftToeBase
				{
					OFFSET 0.00000 -1.50274 5.60831
					CHANNELS 3 Xrotation Yrotation Zrotation
					End Site
					{
						OFFSET 0.00000 0.00000 2.95275
					}
				}
			}
		}
	}
	JOINT Spine
	{
		OFFSET 0.00000 6.06821 0.00000
		CHANNELS 3 Xrotation Yrotation Zrotation
		JOINT RightShoulder
		{
			OFFSET 0.00000 10.01392 0.00000
			CHANNELS 3 Xrotation Yrotation Zrotation
			JOINT RightArm
			{
				OFFSET -7.19022 0.00000 0.00000
				CHANNELS 3 Xrotation Yrotation Zrotation
				JOINT RightForeArm
				{
					OFFSET -10.17747 0.00000 0.00000
					CHANNELS 3 Yrotation Zrotation Xrotation
					JOINT RightHand
					{
						OFFSET -8.39211 0.00000 0.00000
						CHANNELS 3 Xrotation Yrotation Zrotation
						End Site
						{
							OFFSET -3.93700 0.00000 0.00000
						}
						JOINT RightHandThumb1
						{
							OFFSET 0.00000 0.00000 0.00000
							CHANNELS 3 Xrotation Zrotation Yrotation
							End Site
							{
								OFFSET 0.00000 0.00000 3.93700
							}
						}
					}
				}
			}
		}
		JOINT LeftShoulder
		{
			OFFSET 0.00000 10.01392 0.00000
			CHANNELS 3 Xrotation Yrotation Zrotation
			JOINT LeftArm
			{
				OFFSET 7.19022 0.00000 0.00000
				CHANNELS 3 Xrotation Yrotation Zrotation
				JOINT LeftForeArm
				{
					OFFSET 10.17747 0.00000 0.00000
					CHANNELS 3 Yrotation Zrotation Xrotation
					JOINT LeftHand
					{
						OFFSET 8.39211 0.00000 0.00000
						CHANNELS 3 Xrotation Yrotation Zrotation
						End Site
						{
							OFFSET 3.93700 0.00000 0.00000
						}
						JOINT LeftHandThumb1
						{
							OFFSET 0.00000 0.00000 0.00000
							CHANNELS 3 Xrotation Zrotation Yrotation
							End Site
							{
								OFFSET 0.00000 0.00000 3.93700
							}
						}
					}
				}
			}
		}
		JOINT Head
		{
			OFFSET 0.00000 15.77748 0.00000
			CHANNELS 3 Xrotation Yrotation Zrotation
			End Site
			{
				OFFSET 0.00000 4.52755 0.00000
			}
		}
	}
}
MOTION
Frames: 19
Frame Time: 0.008333
 -3.9187 33.1408 -2.7220 9.5222 -3.0259 3.4879 -2.1638 -6.4513 -3.0093 -1.8335 -0.0000 -0.0000 -10.6920 -6.9553 -2.9282 5.2239 -0.0000 0.0000 -3.1664 3.0491 2.0108 1.1148 0.0000 0.0000 -9.1802 6.5148 -13.6942 9.9375 -0.0000 -0.0000 -7.4475 -1.5962 -0.3210 2.1081 -26.2735 -29.2479 -30.9732 1.4517 31.1697 11.7797 0.0000 10.5705 -1.7228 7.9027 12.3399 32.8623 0.0000 -24.3270 -10.7435 24.5552 33.2506 -27.9730 -1.5729 -30.5066 -0.8824 0.0000 25.6082 0.8637 2.9693 -16.2265 33.1476 -0.0000 26.2537 -15.6930 0.4159 0.4807
 -3.9182 33.1407 -2.7199 9.5269 -3.0332 3.4895 -2.1642 -6.4329 -3.0127 -1.8272 0.0000 0.0000 -10.6818 -6.9594 -3.0034 5.1763 0.0000 0.0000 -3.1577 3.0409 2.0085 1.0990 0.0000 0.0000 -9.1674 6.5260 -13.6756 9.8700 -0.0000 -0.0000 -7.4548 -1.5901 -0.3210 2.1191 -26.2827 -29.2490 -30.9646 1.4644 31.1874 11.7747 0.0000 10.5234 -1.7253 7.9041 12.3551 32.8623 0.0000 -24.3270 -10.7462 24.5650 33.2520 -27.9744 -1.5737 -30.5089 -0.8839 0.0000 25.5796 0.8663 2.9450 -16.3995 33.1476 -0.0000 26.2537 -15.6754 0.4310 0.4818
 -3.9184 33.1401 -2.7189 9.5278 -3.0305 3.4895 -2.1645 -6.4364 -3.0136 -1.8249 -0.0000 -0.0000 -10.6886 -6.9582 -2.9837 5.2010 -0.0000 0.0000 -3.1510 3.0316 2.0089 1.0863 0.0000 -0.0000 -9.1663 6.5295 -13.6918 9.8887 0.0000 0.0000 -7.4574 -1.5835 -0.3289 2.1392 -26.2971 -29.2355 -30.9946 1.4491 31.2019 11.7720 0.0000 10.5429 -1.7245 7.8941 12.3642 32.8623 0.0000 -24.3270 -10.7461 24.5580 33.2541 -27.9516 -1.5816 -30.5026 -0.8825 0.0000 25.5510 0.8601 2.9259 -16.3903 33.1476 -0.0000 26.2537 -15.6590 0.4360 0.4920
 -3.9183 33.1402 -2.7174 9.5311 -3.0263 3.4889 -2.1587 -6.4449 -3.0126 -1.8384 0.0000 0.0000 -10.6819 -6.9497 -2.9963 5.1799 -0.0000 -0.0000 -3.1473 3.0234 2.0082 1.0732 0.0000 0.0000 -9.1815 6.5389 -13.6358 9.9611 0.0000 -0.0000 -7.4630 -1.5873 -0.3340 2.1414 -26.2956 -29.2285 -30.9910 1.4497 31.2107 11.7598 0.0000 10.5458 -1.7273 7.8955 12.3818 32.8623 0.0000 -24.3270 -10.7458 24.5624 33.2621 -27.9597 -1.5662 -30.5036 -0.8818 0.0000 25.5260 0.8555 2.9105 -16.3888 33.1476 -0.0000 26.2537 -15.6448 0.4215 0.5139
 -3.9175 33.1402 -2.7169 9.5394 -3.0200 3.4897 -2.1629 -6.4575 -3.0135 -1.8456 0.0000 0.0000 -10.6789 -6.9498 -2.9917 5.1746 -0.0000 -0.0000 -3.1543 3.0177 2.0068 1.0716 0.0000 0.0000 -9.1790 6.5322 -13.6215 9.9392 0.0000 0.0000 -7.4709 -1.5984 -0.3361 2.1490 -26.2893 -29.2275 -30.9858 1.4089 31.2204 11.8151 0.0000 10.5066 -1.7307 7.8730 12.4396 32.8623 0.0000 -24.3270 -10.7556 24.5599 33.2603 -27.9284 -1.5616 -30.4867 -0.8833 0.0000 25.5641 0.8462 2.8969 -16.2913 33.1476 -0.0000 26.2537 -15.6312 0.4357 0.5247
 -3.9178 33.1401 -2.7155 9.5437 -3.0157 3.4863 -2.1614 -6.4591 -3.0102 -1.8494 0.0000 -0.0000 -10.6780 -6.9481 -2.9946 5.1935 0.0000 0.0000 -3.1521 3.0033 2.0099 1.0649 -0.0000 -0.0000 -9.1623 6.5456 -13.6715 9.8727 0.0000 0.0000 -7.4808 -1.5946 -0.3370 2.1578 -26.2987 -29.2244 -30.9873 1.3941 31.2419 11.8129 0.0000 10.4433 -1.7335 7.8920 12.4301 32.8623 0.0000 -24.3270 -10.7228 24.5736 33.2481 -27.9639 -1.5537 -30.4849 -0.8777 0.0000 25.5563 0.8405 2.8809 -16.2717 33.1476 -0.0000 26.2537 -15.6070 0.4311 0.5291
 -3.9176 33.1401 -2.7147 9.5540 -3.0060 3.4844 -2.1662 -6.4676 -3.0084 -1.8561 0.0000 -0.0000 -10.6732 -6.9545 -2.9720 5.1729 0.0000 0.0000 -3.1599 3.0052 2.0106 1.0536 -0.0000 -0.0000 -9.1690 6.5346 -13.6265 9.9246 0.0000 0.0000 -7.4910 -1.5963 -0.3428 2.1658 -26.3010 -29.2060 -30.9973 1.4008 31.2445 11.7603 0.0000 10.4624 -1.7298 7.9162 12.3679 32.8623 0.0000 -24.3270 -10.7377 24.5664 33.2632 -27.9590 -1.5395 -30.4874 -0.8703 0.0000 25.5652 0.8366 2.8652 -16.2849 33.1476 -0.0000 26.2537 -15.5960 0.4277 0.5454
 -3.9180 33.1399 -2.7143 9.5619 -2.9997 3.4836 -2.1726 -6.4677 -3.0060 -1.8569 0.0000 -0.0000 -10.6734 -6.9575 -2.9788 5.1536 -0.0000 0.0000 -3.1660 3.0088 2.0122 1.0481 -0.0000 0.0000 -9.1694 6.5246 -13.6034 9.8818 0.0000 -0.0000 -7.4956 -1.5940 -0.3506 2.1666 -26.3080 -29.1857 -30.9844 1.4117 31.2444 11.7367 0.0000 10.4204 -1.7302 7.9347 12.3431 32.8623 0.0000 -24.3270 -10.7656 24.5536 33.2780 -27.9220 -1.5449 -30.4837 -0.8587 0.0000 25.5438 0.8278 2.8338 -16.2906 33.1476 -0.0000 26.2537 -15.5923 0.4088 0.5512
 -3.9177 33.1398 -2.7131 9.5665 -2.9881 3.4849 -2.1683 -6.4841 -3.0085 -1.8703 -0.0000 -0.0000 -10.6714 -6.9511 -2.9874 5.1683 -0.0000 -0.0000 -3.1660 3.0014 2.0089 1.0379 -0.0000 -0.0000 -9.1693 6.5309 -13.6292 9.9322 0.0000 0.0000 -7.5036 -1.5968 -0.3609 2.1842 -26.3133 -29.1738 -31.0080 1.3654 31.2560 11.7571 0.0000 10.4648 -1.7348 7.9222 12.3935 32.8623 0.0000 -24.3270 -10.7638 24.5480 33.2897 -27.9425 -1.5074 -30.4861 -0.8606 0.0000 25.5714 0.8223 2.8192 -16.2684 33.1476 -0.0000 26.2537 -15.5653 0.4091 0.5688
 -3.9170 33.1397 -2.7121 9.5698 -2.9772 3.4874 -2.1667 -6.4852 -3.0126 -1.8725 -0.0000 0.0000 -10.6776 -6.9573 -2.9866 5.1697 -0.0000 0.0000 -3.1676 3.0006 2.0056 1.0343 -0.0000 0.0000 -9.1643 6.5109 -13.6180 9.9409 -0.0000 0.0000 -7.5070 -1.6102 -0.3672 2.1815 -26.3082 -29.1663 -30.9930 1.3590 31.2602 11.7617 0.0000 10.4720 -1.7268 7.9086 12.3586 32.8623 0.0000 -24.3270 -10.7565 24.5639 33.2868 -27.9512 -1.5034 -30.4813 -0.8512 0.0000 25.5228 0.8229 2.7968 -16.4026 33.1476 -0.0000 26.2537 -15.5485 0.4192 0.5687
 -3.9170 33.1396 -2.7113 9.5728 -2.9700 3.4843 -2.1634 -6.4991 -3.0093 -1.8818 0.0000 0.0000 -10.6735 -6.9468 -2.9818 5.1532 -0.0000 0.0000 -3.1680 3.0028 2.0068 1.0296 0.0000 -0.0000 -9.1425 6.5098 -13.6871 9.8678 -0.0000 -0.0000 -7.5110 -1.6090 -0.3687 2.2042 -26.3231 -29.1545 -30.9970 1.3517 31.2716 11.7692 0.0000 10.5156 -1.6955 7.9005 12.1531 32.8623 0.0000 -24.3270 -10.7393 24.5722 33.2874 -27.9712 -1.4862 -30.4883 -0.8460 0.0000 25.5137 0.8231 2.8004 -16.3869 33.1476 -0.0000 26.2537 -15.5176 0.4267 0.5850
 -3.9166 33.1395 -2.7105 9.5819 -2.9584 3.4841 -2.1695 -6.5156 -3.0094 -1.8829 0.0000 0.0000 -10.6720 -6.9487 -2.9787 5.1642 0.0000 0.0000 -3.1733 3.0110 2.0078 1.0135 0.0000 0.0000 -9.1527 6.4875 -13.6259 9.9507 -0.0000 0.0000 -7.5246 -1.6042 -0.3714 2.2314 -26.3407 -29.1344 -31.0159 1.3337 31.2705 11.7644 0.0000 10.5125 -1.7166 7.9008 12.2995 32.8623 0.0000 -24.3270 -10.7437 24.5473 33.2853 -27.9579 -1.4582 -30.4739 -0.8470 0.0000 25.5661 0.8128 2.7889 -16.2551 33.1476 -0.0000 26.2537 -15.4917 0.4313 0.5778
 -3.9165 33.1395 -2.7105 9.5878 -2.9477 3.4792 -2.1735 -6.5069 -3.0053 -1.8812 -0.0000 -0.0000 -10.6705 -6.9616 -2.9817 5.1524 -0.0000 0.0000 -3.1821 3.0114 2.0122 1.0207 -0.0000 -0.0000 -9.1447 6.4731 -13.6855 9.8664 0.0000 -0.0000 -7.5283 -1.6118 -0.3695 2.2374 -26.3372 -29.1280 -31.0136 1.3034 31.2734 11.7856 0.0000 10.5288 -1.7221 7.9063 12.3293 32.8623 0.0000 -24.3270 -10.7360 24.5601 33.2810 -27.9674 -1.4507 -30.4714 -0.8414 0.0000 25.5499 0.8144 2.7914 -16.2722 33.1476 -0.0000 26.2537 -15.4739 0.4368 0.5789
 -3.9158 33.1393 -2.7097 9.5894 -2.9380 3.4796 -2.1702 -6.5170 -3.0071 -1.8871 -0.0000 -0.0000 -10.6710 -6.9606 -2.9803 5.1630 0.0000 -0.0000 -3.1824 3.0041 2.0094 1.0135 -0.0000 0.0000 -9.1533 6.4700 -13.6104 9.8965 0.0000 0.0000 -7.5281 -1.6144 -0.3699 2.2490 -26.3512 -29.1212 -31.0032 1.3041 31.2808 11.7978 0.0000 10.5393 -1.7122 7.8895 12.2860 32.8623 0.0000 -24.3270 -10.7391 24.5630 33.2796 -27.9651 -1.4409 -30.4684 -0.8384 0.0000 25.5055 0.8180 2.7748 -16.4325 33.1476 -0.0000 26.2537 -15.4539 0.4420 0.5676
 -3.9155 33.1393 -2.7089 9.5912 -2.9292 3.4783 -2.1690 -6.5212 -3.0076 -1.8903 0.0000 0.0000 -10.6735 -6.9564 -2.9884 5.1933 -0.0000 -0.0000 -3.1826 3.0011 2.0085 1.0111 0.0000 0.0000 -9.1345 6.4794 -13.7119 9.8861 -0.0000 0.0000 -7.5274 -1.6284 -0.3735 2.2719 -26.3520 -29.0962 -31.0191 1.2963 31.2737 11.7983 0.0000 10.5616 -1.7239 7.9149 12.3289 32.8623 0.0000 -24.3270 -10.7501 24.5818 33.2955 -27.9619 -1.4220 -30.4775 -0.8382 0.0000 25.4867 0.8011 2.7137 -16.4547 33.1476 -0.0000 26.2537 -15.4416 0.4618 0.5798
 -3.9154 33.1390 -2.7076 9.5918 -2.9185 3.4750 -2.1656 -6.5224 -3.0049 -1.8880 -0.0000 -0.0000 -10.6722 -6.9737 -2.9746 5.1672 0.0000 0.0000 -3.1851 3.0282 2.0126 1.0071 -0.0000 0.0000 -9.1547 6.4293 -13.6212 9.9655 0.0000 0.0000 -7.5303 -1.6327 -0.3725 2.2764 -26.3588 -29.0898 -31.0200 1.2841 31.2771 11.8084 0.0000 10.5652 -1.7254 7.9130 12.3422 32.8623 0.0000 -24.3270 -10.7484 24.5913 33.2994 -27.9824 -1.4079 -30.4865 -0.8349 0.0000 25.4835 0.7978 2.7038 -16.4459 33.1476 -0.0000 26.2537 -15.4169 0.4526 0.5531
 -3.9150 33.1390 -2.7073 9.5935 -2.9107 3.4728 -2.1689 -6.5481 -3.0036 -1.8847 -0.0000 -0.0000 -10.6741 -6.9595 -2.9655 5.1605 -0.0000 -0.0000 -3.1871 3.0148 2.0146 1.0108 0.0000 0.0000 -9.1360 6.4268 -13.6787 9.8099 0.0000 -0.0000 -7.5337 -1.6395 -0.3685 2.2842 -26.3694 -29.0903 -31.0352 1.2835 31.2944 11.7980 0.0000 10.5785 -1.7242 7.9047 12.3465 32.8623 0.0000 -24.3270 -10.7273 24.6080 33.2838 -27.9880 -1.4032 -30.4813 -0.8363 0.0000 25.4989 0.7903 2.6994 -16.3249 33.1476 -0.0000 26.2537 -15.3858 0.4932 0.5621
 -3.9144 33.1386 -2.7059 9.5960 -2.9042 3.4722 -2.1709 -6.5488 -3.0051 -1.8799 0.0000 -0.0000 -10.6838 -6.9588 -2.9824 5.1497 -0.0000 -0.0000 -3.1843 2.9980 2.0129 1.0050 0.0000 0.0000 -9.1415 6.4412 -13.6928 9.8509 -0.0000 0.0000 -7.5430 -1.6256 -0.3659 2.2979 -26.3848 -29.0902 -31.0343 1.2711 31.3015 11.7897 0.0000 10.5748 -1.7307 7.9307 12.3525 32.8623 0.0000 -24.3270 -10.7323 24.5922 33.2865 -27.9827 -1.3872 -30.4891 -0.8477 0.0000 25.5037 0.7984 2.7222 -16.3530 33.1476 -0.0000 26.2537 -15.3471 0.4936 0.5464
 -3.9139 33.1383 -2.7047 9.5967 -2.8939 3.4722 -2.1698 -6.5521 -3.0064 -1.8780 -0.0000 -0.0000 -10.6865 -6.9708 -2.9756 5.1373 0.0000 -0.0000 -3.1815 2.9897 2.0115 0.9971 -0.0000 0.0000 -9.1423 6.4527 -13.7262 9.9296 0.0000 -0.0000 -7.5494 -1.6246 -0.3660 2.3074 -26.3905 -29.0923 -31.0350 1.2542 31.3107 11.7852 0.0000 10.5583 -1.7384 7.9502 12.3765 32.8623 0.0000 -24.3270 -10.7220 24.5917 33.2781 -27.9915 -1.3716 -30.4862 -0.8549 0.0000 25.5052 0.7972 2.7187 -16.3497 33.1476 -0.0000 26.2537 -15.3099 0.5098 0.5271
